. 
 
http://www.torrenting.com          :     Once & For all ;)


               www . Torrenting . Com 

(((((((((((((= Enjoy No RAR releases =))))))))))))))))))))


...................................NFO:....................................

.[IMG]http://img710.imageshack.us/img710/6816/towery.jpg[/IMG]


[color=blue][size=5][b]Tower.Heist.2011.BDRip.XVID.AC3.HQ.Hive-CM8[/b][/size][/color]


[b] Thx Hive

CM8 Doing It Right The First Time :D


Source: Bluray

Video: 720x304 @bitrate 1700 2pass
Audio: English DTS to AC3 5.1 @448
Subs: Yes, English in srt /subs
Sample: Yes, included[/b]
 
http://www.imdb.com/title/tt0471042/


General
Complete name                  : Tower.Heist.2011.BDRip.XVID.AC3.HQ.Hive-CM8.avi
Format                         : AVI
Format/Info                    : Audio Video Interleave
File size                      : 1.58 GiB
Duration                       : 1h 44mn
Overall bit rate               : 2 157 Kbps
Writing application            : Nandub v1.0rc2
Writing library                : Nandub build 1853/release

Video
ID                             : 0
Format                         : MPEG-4 Visual
Format profile                 : Advanced Simple@L5
Format settings, BVOP          : 1
Format settings, QPel          : Yes
Format settings, GMC           : No warppoints
Format settings, Matrix        : Default (H.263)
Muxing mode                    : Packed bitstream
Codec ID                       : XVID
Codec ID/Hint                  : XviD
Duration                       : 1h 44mn
Bit rate                       : 1 700 Kbps
Width                          : 720 pixels
Height                         : 304 pixels
Display aspect ratio           : 2.40:1
Frame rate                     : 23.976 fps
Color space                    : YUV
Chroma subsampling             : 4:2:0
Bit depth                      : 8 bits
Scan type                      : Progressive
Compression mode               : Lossy
Bits/(Pixel*Frame)             : 0.324
Stream size                    : 1.24 GiB (79%)
Writing library                : XviD 1.2.1 (UTC 2008-12-04)

Audio
ID                             : 1
Format                         : AC-3
Format/Info                    : Audio Coding 3
Mode extension                 : CM (complete main)
Codec ID                       : 2000
Duration                       : 1h 44mn
Bit rate mode                  : Constant
Bit rate                       : 448 Kbps
Channel(s)                     : 6 channels
Channel positions              : Front: L C R, Side: L R, LFE
Sampling rate                  : 48.0 KHz
Bit depth                      : 16 bits
Compression mode               : Lossy
Stream size                    : 335 MiB (21%)
Alignment                      : Split accross interleaves
Interleave, duration           : 42 ms (1.00 video frame)
Interleave, preload duration   : 500 ms


Plot:
When a group of hard working guys find out they've fallen victim to
a wealthy business man's Ponzi scheme, they conspire to rob his
high-rise residence.


Cast:
Ben Stiller         ...    Josh Kovacs
Eddie Murphy        ...    Slide
Casey Affleck       ...    Charlie
Alan Alda           ...    Arthur Shaw
Ta Leoni           ...    Special Agent Claire Denham
Matthew Broderick   ...    Mr. Fitzhugh


[img]http://img832.imageshack.us/img832/2899/91243471.png[/img]
[img]http://img252.imageshack.us/img252/4620/totoh.png[/img]
[img]http://img831.imageshack.us/img831/6499/tototo.png[/img]
[img]http://img35.imageshack.us/img35/5769/totototo.png[/img]
[img]http://img853.imageshack.us/img853/6884/tototototo.png[/img]
[img]http://img27.imageshack.us/img27/9025/totototototo.png[/img]
[img]http://img716.imageshack.us/img716/2623/tototototototoz.png[/img]
[img]http://img692.imageshack.us/img692/6307/totototototototo.png[/img]



Greetz

ViSiON,SPK,SceneLovers,PRESTiGE,SANTi,3LT0N,YanKeeS,COPYxRIGHT,THC,T0XiC
D2U,LKRG,Feel-Free,FLAWL3SS,WBZ,BHRG,26K,NOVA,SeToNeUp,TED,MAGNET,jtr
Unevano,Rapeseed,SAFC,goldadvance,KaN1vE,Pinnz,Wayne
Mr Hive,and most P2P groups
Great Work Guys :D

LOOKING FOR ANYTHING YOU WANT TO LOOK AND SOUND BETTER

CM8@hushmail.com